<?xml version="1.0" encoding="UTF-8"?>
<svg version="1.1" xmlns="http://www.w3.org/2000/svg" width="256" height="256">
<path d="M0 0 C2.45767104 -0.00434431 4.91349783 -0.04069043 7.37084961 -0.07861328 C36.27921089 -0.28404533 63.9529388 10.75189205 85.92358398 29.37060547 C86.92905273 30.21236328 87.93452148 31.05412109 88.97045898 31.92138672 C111.49520305 51.33162519 126.82978057 79.90755956 130.92358398 109.37060547 C131.04951859 112.13387137 131.13441519 114.87236493 131.16186523 117.63623047 C131.16993698 118.42850037 131.17800873 119.22077026 131.18632507 120.03704834 C131.20011188 121.71461847 131.21085803 123.392216 131.21875 125.06982422 C131.23016058 126.74894714 131.25043445 128.42803704 131.28027344 130.10693359 C131.8125178 160.15049239 121.35768151 188.43778237 101.92358398 211.37060547 C101.08182617 212.37607422 100.24006836 213.38154297 99.37280273 214.41748047 C80.19331974 236.67444276 51.19151504 252.8232334 21.92358398 256.37060547 C16.56986827 256.71795998 11.21034562 256.74226658 5.84716797 256.74121094 C3.38949693 256.74555524 0.93367014 256.78190136 -1.52368164 256.81982422 C-30.43204292 257.02525626 -58.10577083 245.98931889 -80.07641602 227.37060547 C-81.08188477 226.52884766 -82.08735352 225.68708984 -83.12329102 224.81982422 C-105.3802533 205.64034123 -121.52904395 176.63853653 -125.07641602 147.37060547 C-125.42377053 142.01688976 -125.44807712 136.6573671 -125.44702148 131.29418945 C-125.45136579 128.83651841 -125.48771191 126.38069162 -125.52563477 123.92333984 C-125.73106681 95.01497857 -114.69512943 67.34125065 -96.07641602 45.37060547 C-95.2346582 44.36513672 -94.39290039 43.35966797 -93.52563477 42.32373047 C-70.14739757 15.19429513 -35.5626651 -0.00699984 0 0 Z " fill="#9C50F2" transform="translate(125.076416015625,-0.37060546875)"/>
<path d="M0 0 C8.75389701 5.23762578 13.91881667 12.18027807 16.6875 21.9375 C18.75007907 31.45137821 16.75701259 38.43787272 11.6875 46.625 C7.44253475 52.71925704 2.63206657 56.00725043 -4.5625 57.9375 C-3.61890625 57.94136719 -3.61890625 57.94136719 -2.65625 57.9453125 C4.27921638 58.25866188 8.48545555 60.05407511 13.4375 64.9375 C16.21540006 68.23867891 16.94809787 70.63076124 17.4375 74.9375 C18.30375 75.02 19.17 75.1025 20.0625 75.1875 C24.04875142 76.07333365 26.28703161 77.34711488 29.4375 79.9375 C32.4375 84.9375 32.4375 84.9375 32.4375 87.9375 C39.54297844 83.35504986 46.1694179 78.32831397 52.77539062 73.06054688 C65.5642658 62.96872057 65.5642658 62.96872057 71.1875 62.875 C74.92242039 64.09603167 76.15480761 64.75291643 78.4375 67.9375 C79.01092687 71.19327099 78.92527018 74.40570382 78.86328125 77.703125 C78.86058228 78.67732895 78.8578833 79.6515329 78.85510254 80.65525818 C78.84062653 83.8331979 78.79659964 87.00988109 78.75 90.1875 C78.72967376 92.36693392 78.71039095 94.54637781 78.69213867 96.72583008 C78.65086248 101.08329556 78.59512707 105.44023159 78.52734375 109.79736328 C78.4553355 114.43514464 78.41311362 119.07210633 78.39021301 123.71035767 C78.37101942 126.6730247 78.32986467 129.63499575 78.27987671 132.59729004 C78.25062461 134.58260799 78.24190939 136.5681947 78.23364258 138.55371094 C77.99600319 148.10876753 77.99600319 148.10876753 75.01171875 151.20703125 C71.14826088 153.80416605 69.14154998 154.62172545 64.4375 153.9375 C61.18335487 151.92621112 58.3614613 149.394646 55.4375 146.9375 C53.7039612 145.56929588 51.95897468 144.21654752 50.21337891 142.86376953 C44.45904053 138.39938111 38.82705241 133.84165794 33.4375 128.9375 C32.18670429 131.42816744 30.96057728 133.92667304 29.75 136.4375 C27.39167045 140.54470314 24.73047689 142.02099246 20.4375 143.9375 C19.1175 143.9375 17.7975 143.9375 16.4375 143.9375 C16.355 144.80375 16.2725 145.67 16.1875 146.5625 C15.30166635 150.54875142 14.02788512 152.78703161 11.4375 155.9375 C7.14376662 158.52714181 3.97643581 159.31040773 -1.00976562 159.29394531 C-2.27389282 159.29694641 -3.53802002 159.29994751 -4.8404541 159.30303955 C-6.21655659 159.29100055 -7.59265523 159.27851609 -8.96875 159.265625 C-10.41288047 159.26255597 -11.85701392 159.26068857 -13.30114746 159.25994873 C-16.34085335 159.25534628 -19.38029433 159.2409592 -22.41992188 159.21875 C-26.21811332 159.19106813 -30.01609505 159.17972857 -33.81437683 159.17487335 C-41.94918237 159.16394792 -50.08222425 159.09903375 -58.21630859 158.99145508 C-61.1163764 158.95323738 -64.01624607 158.92568194 -66.91650391 158.90698242 C-71.0388543 158.8788595 -75.15947483 158.80886645 -79.28125 158.734375 C-80.50799438 158.72964172 -81.73473877 158.72490845 -82.99865723 158.72003174 C-89.99115585 158.55008628 -95.37773685 157.94297831 -100.5625 152.9375 C-104.08622911 148.63967919 -105.0972512 144.3838132 -105.29296875 138.88671875 C-105.32085983 138.1767424 -105.34875092 137.46676605 -105.37748718 136.73527527 C-105.46645789 134.13605362 -105.51714279 131.53785063 -105.5625 128.9375 C-105.58411194 127.8574469 -105.60572388 126.7773938 -105.62799072 125.66461182 C-105.77003647 118.03534673 -105.83476844 110.40759923 -105.85766602 102.77709961 C-105.86887992 99.39358588 -105.9035484 96.01070291 -105.94283772 92.62741566 C-105.9752507 89.36235185 -105.97976546 86.09723138 -105.98828125 82.83203125 C-106.00578934 81.62577591 -106.02329742 80.41952057 -106.04133606 79.17671204 C-106.02475743 72.7964489 -105.94430359 68.74048622 -101.5625 63.9375 C-96.42008748 59.29678626 -91.1972944 59.17361368 -84.5625 58.9375 C-85.7175 58.4425 -86.8725 57.9475 -88.0625 57.4375 C-94.60749953 54.17081285 -100.41830667 48.59579176 -103.5625 41.9375 C-106.15485464 33.91622876 -105.93817153 23.44797321 -102.125 15.9375 C-97.11369943 8.11469512 -89.78425791 1.16969556 -80.5625 -1.0625 C-70.83948425 -2.14659932 -63.32616993 -1.22801458 -55.37890625 4.515625 C-50.87511636 8.18476759 -48.11245038 11.73952423 -45.5625 16.9375 C-45.15 17.741875 -44.7375 18.54625 -44.3125 19.375 C-44.065 19.890625 -43.8175 20.40625 -43.5625 20.9375 C-43.211875 19.7825 -42.86125 18.6275 -42.5 17.4375 C-39.53444477 9.51061303 -32.88697093 3.08640479 -25.39453125 -0.63671875 C-17.76714928 -3.81860263 -7.46718714 -3.47018052 0 0 Z " fill="#FB6EFE" transform="translate(145.5625,38.0625)"/>
<path d="M0 0 C30.36 0 60.72 0 92 0 C92 16.5 92 33 92 50 C69.32960966 50.04010881 69.32960966 50.04010881 59.70117188 50.04882812 C53.11905109 50.05481689 46.53694416 50.06191807 39.95483398 50.07543945 C34.6510344 50.08626725 29.34724965 50.0922766 24.04343987 50.09487724 C22.01514388 50.09673169 19.98684874 50.10035267 17.95855904 50.10573006 C15.12803486 50.11293906 12.29757282 50.113991 9.46704102 50.11352539 C8.19605812 50.1189183 8.19605812 50.1189183 6.8993988 50.12442017 C1.11405216 50.11405216 1.11405216 50.11405216 0 49 C-0.09319449 47.4651703 -0.117458 45.92607918 -0.11352539 44.38842773 C-0.11334412 42.89635803 -0.11334412 42.89635803 -0.11315918 41.37414551 C-0.10804321 40.32126343 -0.10292725 39.26838135 -0.09765625 38.18359375 C-0.09664917 37.22134888 -0.09564209 36.259104 -0.09460449 35.2677002 C-0.0893546 31.65762142 -0.07539348 28.04755957 -0.0625 24.4375 C-0.041875 16.373125 -0.02125 8.30875 0 0 Z " fill="#8354F0" transform="translate(55,113)"/>
<path d="M0 0 C2.17651367 1.45605469 2.17651367 1.45605469 4 4 C4.57342687 7.25577099 4.48777018 10.46820382 4.42578125 13.765625 C4.42308228 14.73982895 4.4203833 15.7140329 4.41760254 16.71775818 C4.40312653 19.8956979 4.35909964 23.07238109 4.3125 26.25 C4.29217376 28.42943392 4.27289095 30.60887781 4.25463867 32.78833008 C4.21336248 37.14579556 4.15762707 41.50273159 4.08984375 45.85986328 C4.0178355 50.49764464 3.97561362 55.13460633 3.95271301 59.77285767 C3.93351942 62.7355247 3.89236467 65.69749575 3.84237671 68.65979004 C3.81312461 70.64510799 3.80440939 72.6306947 3.79614258 74.61621094 C3.55850319 84.17126753 3.55850319 84.17126753 0.57421875 87.26953125 C-3.28923912 89.86666605 -5.29595002 90.68422545 -10 90 C-13.25414513 87.98871112 -16.0760387 85.457146 -19 83 C-20.7335388 81.63179588 -22.47852532 80.27904752 -24.22412109 78.92626953 C-29.97845947 74.46188111 -35.61044759 69.90415794 -41 65 C-42.25079571 67.49066744 -43.47692272 69.98917304 -44.6875 72.5 C-47.04582955 76.60720314 -49.70702311 78.08349246 -54 80 C-55.32 80 -56.64 80 -58 80 C-58 56.24 -58 32.48 -58 8 C-57.67 8.99 -57.34 9.98 -57 11 C-56.13375 11.0825 -55.2675 11.165 -54.375 11.25 C-50.38874858 12.13583365 -48.15046839 13.40961488 -45 16 C-42 21 -42 21 -42 24 C-34.89452156 19.41754986 -28.2680821 14.39081397 -21.66210938 9.12304688 C-7.14202565 -2.334893 -7.14202565 -2.334893 0 0 Z " fill="#F766FD" transform="translate(220,102)"/>
<path d="M0 0 C8.75389701 5.23762578 13.91881667 12.18027807 16.6875 21.9375 C18.75007907 31.45137821 16.75701259 38.43787272 11.6875 46.625 C7.44253475 52.71925704 2.63206657 56.00725043 -4.5625 57.9375 C-1.2625 58.2675 2.0375 58.5975 5.4375 58.9375 C5.4375 59.2675 5.4375 59.5975 5.4375 59.9375 C-19.3125 59.9375 -44.0625 59.9375 -69.5625 59.9375 C-67.17041279 57.54541279 -64.89159456 56.64784765 -61.8125 55.25 C-54.0038552 51.38303954 -49.70902835 46.68719558 -46.36328125 38.66015625 C-44.99830579 34.0192397 -44.6034654 29.25357909 -44.0390625 24.4609375 C-42.73842153 14.84472312 -38.02897713 9.06899135 -31.0625 2.625 C-22.06811172 -3.44621209 -9.94700415 -4.62261082 0 0 Z " fill="#F96FFE" transform="translate(145.5625,38.0625)"/>
<path d="M0 0 C1.65999609 0.00290502 3.31999833 0.00328921 4.97999573 0.00126648 C8.4563409 0.00448112 11.93142029 0.03142159 15.4074707 0.07641602 C19.85418055 0.13304193 24.29931009 0.14127934 28.74632168 0.133008 C32.17375743 0.1302044 35.60084314 0.14784857 39.02818489 0.17214012 C40.66715212 0.18232468 42.30615914 0.18744781 43.945158 0.18734169 C46.24076116 0.1913277 48.53456398 0.22155361 50.82983398 0.2590332 C52.78577736 0.27737968 52.78577736 0.27737968 54.78123474 0.2960968 C60.03939113 1.08161677 62.91548615 3.46378561 66.65905762 7.09916687 C68.77036844 10.57063414 68.87969674 13.47979911 68.83398438 17.42504883 C68.84099365 18.17370712 68.84800293 18.92236542 68.85522461 19.69371033 C68.87278264 22.16077128 68.86118689 24.626678 68.84765625 27.09375 C68.85035267 28.81622029 68.85423633 30.53868908 68.85925293 32.26115417 C68.86514571 35.86996971 68.85659552 39.47838882 68.83789062 43.0871582 C68.81515239 47.69723411 68.82819257 52.30637583 68.85218048 56.91641712 C68.86668855 60.4742476 68.86200875 64.03185955 68.85166931 67.58969688 C68.84901316 69.28843994 68.85223243 70.98720325 68.86158752 72.68592262 C68.93291313 89.28399295 68.93291313 89.28399295 64.31640625 95.82421875 C58.42990692 100.72963486 52.73914417 100.26300129 45.31640625 99.82421875 C45.73792969 99.26992187 46.15945312 98.715625 46.59375 98.14453125 C47.41552734 97.05785156 47.41552734 97.05785156 48.25390625 95.94921875 C49.07181641 94.87027344 49.07181641 94.87027344 49.90625 93.76953125 C52.61873219 90.02765831 52.46698543 87.41825889 52.52172852 82.80419922 C52.53162811 82.08214294 52.54152771 81.36008667 52.55172729 80.6161499 C52.58336656 78.22460227 52.60810924 75.83303476 52.6328125 73.44140625 C52.65337994 71.78516111 52.67437635 70.12892124 52.69578552 68.47268677 C52.75102792 64.10960151 52.80042762 59.74646871 52.84863281 55.38330078 C52.89883202 50.93257406 52.95452632 46.48191652 53.00976562 42.03125 C53.11737372 33.29563139 53.21881278 24.55995496 53.31640625 15.82421875 C52.5729747 15.82643936 51.82954315 15.82865997 51.06358337 15.83094788 C43.98979254 15.85114897 36.91601202 15.86629254 29.84220028 15.87603092 C26.20720609 15.88120612 22.57223612 15.88820376 18.93725586 15.8996582 C15.41645133 15.91068094 11.8956698 15.91653573 8.37484932 15.91909599 C6.40613673 15.92178964 4.43743314 15.92956924 2.46873474 15.93751526 C-6.29503431 15.93804901 -14.95051548 15.50726119 -23.68359375 14.82421875 C-19.63050009 0.17398898 -14.27886283 -0.22248142 0 0 Z " fill="#FEF0FE" transform="translate(93.68359375,97.17578125)"/>
<path d="M0 0 C25.08 0 50.16 0 76 0 C76 25.08435124 76 25.08435124 70.09371948 32.34265137 C67.41246374 34.46508256 65.89609033 34.50641315 62.50048828 34.51757812 C61.39899445 34.53018677 60.29750061 34.54279541 59.16262817 34.55578613 C57.977164 34.54768921 56.79169983 34.53959229 55.5703125 34.53125 C53.73567947 34.53699036 53.73567947 34.53699036 51.86398315 34.54284668 C49.276664 34.54556881 46.68931746 34.53818678 44.10205078 34.52148438 C40.14683374 34.50011795 36.19344099 34.52125932 32.23828125 34.546875 C29.72395433 34.54423106 27.20962854 34.53910472 24.6953125 34.53125 C22.92318893 34.54339539 22.92318893 34.54339539 21.11526489 34.55578613 C12.59228665 34.45878003 9.22404865 33.22404865 3.1875 27.1875 C-2.04186165 19.56757303 0 8.54864187 0 0 Z " fill="#FDBAFE" transform="translate(71,163)"/>
<path d="M0 0 C1.26070312 0.01804687 2.52140625 0.03609375 3.8203125 0.0546875 C6.92265614 0.10169271 10.0234338 0.16739324 13.125 0.25 C12.50109375 1.32378906 11.8771875 2.39757812 11.234375 3.50390625 C9.23494104 7.00291567 7.64735039 10.52024154 6.125 14.25 C11.075 14.25 16.025 14.25 21.125 14.25 C21.125 14.58 21.125 14.91 21.125 15.25 C11.225 15.25 1.325 15.25 -8.875 15.25 C-8.545 31.42 -8.215 47.59 -7.875 64.25 C-2.925 64.58 2.025 64.91 7.125 65.25 C7.17398438 66.37277344 7.22296875 67.49554688 7.2734375 68.65234375 C7.01629272 81.71115087 7.01629272 81.71115087 11.8125 93.08203125 C13.70661641 94.75598405 13.70661641 94.75598405 15.6640625 96.15625 C16.14617187 96.5171875 16.62828125 96.878125 17.125 97.25 C17.125 97.58 17.125 97.91 17.125 98.25 C12.62534563 98.39612187 8.12630762 98.4843523 3.625 98.5625 C2.3565625 98.60439453 1.088125 98.64628906 -0.21875 98.68945312 C-6.70952628 98.77396844 -11.76412518 98.70068365 -17.24414062 95.01635742 C-21.74337007 90.14331475 -23.37216564 85.75197441 -23.60546875 79.19921875 C-23.63335983 78.4892424 -23.66125092 77.77926605 -23.68998718 77.04777527 C-23.77895789 74.44855362 -23.82964279 71.85035063 -23.875 69.25 C-23.89661194 68.1699469 -23.91822388 67.0898938 -23.94049072 65.97711182 C-24.08253647 58.34784673 -24.14726844 50.72009923 -24.17016602 43.08959961 C-24.18137992 39.70608588 -24.2160484 36.32320291 -24.25533772 32.93991566 C-24.2877507 29.67485185 -24.29226546 26.40973138 -24.30078125 23.14453125 C-24.31828934 21.93827591 -24.33579742 20.73202057 -24.35383606 19.48921204 C-24.3372358 13.10062701 -24.24313887 9.0693742 -19.875 4.25 C-14.26538216 -1.30444128 -7.37442052 -0.19972389 0 0 Z " fill="#FC9DFE" transform="translate(63.875,97.75)"/>
<path d="M0 0 C20.13 0 40.26 0 61 0 C61 11.22 61 22.44 61 34 C53.1728125 34.12375 53.1728125 34.12375 45.1875 34.25 C42.75346802 34.30462402 42.75346802 34.30462402 40.27026367 34.36035156 C29.29383649 34.44389935 19.63037641 33.01541832 10.8515625 25.8984375 C3.51251192 18.37358817 0 10.38474993 0 0 Z " fill="#E254FB" transform="translate(86,113)"/>
<path d="M0 0 C1.26606583 0.00278961 2.53213165 0.00557922 3.83656311 0.00845337 C6.51373131 0.02121696 9.18669657 0.04704515 11.86303711 0.09619141 C15.28059593 0.15839352 18.69657509 0.17703014 22.11464596 0.17998314 C25.389102 0.18583566 28.66320924 0.21806687 31.9375 0.25 C33.77053932 0.25971329 33.77053932 0.25971329 35.64060974 0.2696228 C43.33165986 0.41991621 48.2173373 0.97124355 53.84765625 6.6015625 C56.12393064 9.91841947 56.52856084 11.88337531 57.03515625 15.7890625 C49.21042688 15.81243477 41.38570599 15.83010248 33.56095028 15.84087467 C29.92595609 15.84604987 26.29098612 15.85304751 22.65600586 15.86450195 C19.13520133 15.87552469 15.6144198 15.88137948 12.09359932 15.88393974 C10.12488673 15.88663339 8.15618314 15.89441299 6.18748474 15.90235901 C-2.57628431 15.90289276 -11.23176548 15.47210494 -19.96484375 14.7890625 C-16.49707029 2.04968165 -13.3348893 -0.29106592 0 0 Z " fill="#FDD3FE" transform="translate(89.96484375,97.2109375)"/>
<path d="M0 0 C0.33 0.99 0.66 1.98 1 3 C2.299375 3.12375 2.299375 3.12375 3.625 3.25 C8.51554228 4.33678717 11.75093813 6.22780163 14.66015625 10.35546875 C16.6501245 15.76841445 16.35657242 20.90667369 16.25 26.625 C16.23614258 27.81963867 16.22228516 29.01427734 16.20800781 30.24511719 C16.15720984 33.830687 16.08072064 37.41499476 16 41 C15.98453125 42.02383789 15.9690625 43.04767578 15.953125 44.10253906 C15.90880997 46.81960455 15.83622292 49.53397797 15.75 52.25 C15.73614258 53.03971191 15.72228516 53.82942383 15.70800781 54.64306641 C15.4672927 60.12827263 14.16024806 63.48129998 11 68 C7.6289837 70.94963926 4.51478905 72 0 72 C0 48.24 0 24.48 0 0 Z " fill="#F697FC" transform="translate(162,110)"/>
<path d="M0 0 C5.28 0 10.56 0 16 0 C16.350625 1.918125 16.70125 3.83625 17.0625 5.8125 C19.33405321 15.43258019 23.16555185 22.51001737 31.5 28.0625 C37.99518646 31.96916362 44.38805108 33.28747881 51.90234375 33.4140625 C52.6249086 33.43342865 53.34747345 33.4527948 54.0919342 33.4727478 C56.37367375 33.53197605 58.65546533 33.57869855 60.9375 33.625 C62.4954633 33.66323223 64.05340666 33.70228692 65.61132812 33.7421875 C69.4074414 33.83916112 73.20337204 33.91917543 77 34 C77 39.28 77 44.56 77 50 C46.97 50 16.94 50 -14 50 C-14 49.67 -14 49.34 -14 49 C15.7 49 45.4 49 76 49 C76 44.38 76 39.76 76 35 C73.87111328 35.00785522 73.87111328 35.00785522 71.69921875 35.01586914 C66.30908874 35.03430682 60.91896135 35.04556984 55.52880859 35.05493164 C53.21923348 35.05988507 50.90966136 35.06664964 48.60009766 35.07543945 C32.70522442 35.13430935 16.87498464 34.81228533 1 34 C0.33120925 29.13101818 -0.12227517 24.45503347 -0.09765625 19.53125 C-0.09443359 18.38398438 -0.09121094 17.23671875 -0.08789062 16.0546875 C-0.07951172 14.88164063 -0.07113281 13.70859375 -0.0625 12.5 C-0.05573242 10.69402344 -0.05573242 10.69402344 -0.04882812 8.8515625 C-0.03711962 5.90102001 -0.0191868 2.95050334 0 0 Z " fill="#AA58F4" transform="translate(70,113)"/>
<path d="M0 0 C4.95 0 9.9 0 15 0 C15.73286909 16.34559815 16.13971368 32.63797564 16 49 C10.72 49 5.44 49 0 49 C0 32.83 0 16.66 0 0 Z " fill="#8056EF" transform="translate(55,113)"/>
<path d="M0 0 C4.44282389 2.14920544 8.51428909 4.61345133 11 9 C12.35593231 13.06779694 12.53075585 16.74668259 12 21 C9.34641502 26.11762818 6.46882174 29.17705942 1 31 C-3.63522786 31.53856933 -7.07906346 31.45178019 -11.3125 29.375 C-15.07280603 26.05193885 -17.63331855 23.51064546 -18.3828125 18.37890625 C-18.56504175 13.90214096 -18.30432054 10.69740125 -16.5 6.5625 C-12.04610761 1.9972603 -6.52484609 -1.22340864 0 0 Z " fill="#FEE9FF" transform="translate(135,51)"/>
<path d="M0 0 C3.35257301 2.23504867 6.07433994 4.20637281 7.8125 7.875 C8.71819822 13.16742784 8.48882865 17.44430478 6.1875 22.3125 C1.85815669 26.98363357 -1.26626026 29.11361982 -7.6875 29.375 C-12.58778768 29.18191801 -15.49978553 28.28613589 -19.1875 24.875 C-22.7091315 21.00120535 -22.86490212 16.71680919 -22.7421875 11.671875 C-21.79305055 6.88608588 -18.90155348 3.88700679 -15.1875 0.875 C-10.2258256 -2.10200464 -5.30391661 -1.87197057 0 0 Z " fill="#FEE0FF" transform="translate(78.1875,53.125)"/>
<path d="M0 0 C0.66 0.33 1.32 0.66 2 1 C2.20625 2.134375 2.4125 3.26875 2.625 4.4375 C4.12445648 11.08309112 8.97467077 16.98920716 14.5859375 20.71875 C17.00680062 22.00360939 19.43208507 23.04620303 22 24 C22 24.33 22 24.66 22 25 C7.81 25 -6.38 25 -21 25 C-18.57349611 22.57349611 -16.99670174 21.31330779 -14.125 19.6875 C-6.28168779 14.82665386 -3.46668923 8.29055041 0 0 Z " fill="#A543EF" transform="translate(101,72)"/>
<path d="M0 0 C0.66 0.33 1.32 0.66 2 1 C1.67 1.33 1.34 1.66 1 2 C0.60185044 6.06112554 0.75327988 8.49669095 2.5625 12.1875 C5.39882712 15.46018514 7.82254632 17.7108639 12 19 C16.48593192 19.10608623 20.68161214 18.12102619 25 17 C23.64844718 21.42326378 21.80109562 23.40412982 18 26 C12.63049295 27.78983568 7.80264667 27.88431724 2.6875 25.375 C-1.07280603 22.05193885 -3.63331855 19.51064546 -4.3828125 14.37890625 C-4.63134913 8.27318969 -4.01438974 4.64163814 0 0 Z " fill="#FDC4FF" transform="translate(121,55)"/>
<path d="M0 0 C0.66 0.33 1.32 0.66 2 1 C2.47242394 2.42015245 2.87974923 3.86235114 3.25 5.3125 C4.34128644 8.69387521 4.94034781 9.94180274 7.5625 12.5 C13.28422295 14.99675183 18.56317851 15.63021245 24.625 14.0625 C25.40875 13.711875 26.1925 13.36125 27 13 C25.64717831 17.42741644 23.76701112 19.36309221 20 22 C16.05100663 23.97449669 11.30409896 23.43770498 7 23 C2.56881281 20.86353475 -0.2290203 18.62422478 -2 14 C-2.89361702 4.34042553 -2.89361702 4.34042553 0 0 Z " fill="#FDBBFF" transform="translate(58,59)"/>
<path d="M0 0 C4.95 0 9.9 0 15 0 C15 4.95 15 9.9 15 15 C10.05 15 5.1 15 0 15 C0 10.05 0 5.1 0 0 Z " fill="#2A56E5" transform="translate(56,147)"/>
<path d="M0 0 C0.66 0.33 1.32 0.66 2 1 C1.05125 1.9075 0.1025 2.815 -0.875 3.75 C-3.14549867 6.00978877 -4.83296506 7.96570916 -6 11 C-6.375 7.75 -6.375 7.75 -6 4 C-3 1.5625 -3 1.5625 0 0 Z " fill="#D955F7" transform="translate(184,122)"/>
</svg>
